<svg xmlns="http://www.w3.org/2000/svg" viewBox="0 0 4356 1318" width="4356" height="1318" role="img" aria-labelledby="t d"><title id="t">Zirven — Yazılım · SaaS · Yapay Zekâ</title><desc id="d">Zirven — technology and software company. Symbol: the Summit Z (20° ramp, 35° summit, 55° descent).</desc><path fill="#5B34E0" d="M0 260.03 L714.42 0 L238 680.4 L714.42 680.4 L714.42 850.5 L0 850.5 L0 680.4 L235.18 344.53 L0 430.13 Z"/><path fill="#0E0B1F" transform="translate(969.6 850.5)" d="M50 0V-91.3L327.7 -450V-412H50V-529H471V-436.3L205.3 -85.3L201.3 -117H478.3V0H50Z M605 0V-529H746.7V0H605ZM675.4 -637.7Q634 -637.7 611 -657.8Q588 -677.9 588 -714.7Q588 -749 611.5 -770.3Q635 -791.7 675.7 -791.7Q716 -791.7 739 -771.5Q762 -751.4 762 -714.7Q762 -680.3 738.8 -659Q715.6 -637.7 675.4 -637.7Z M894.3 0V-529H1031L1035.7 -358.7L1012.3 -394.7Q1024.7 -435.3 1051.5 -468.3Q1078.3 -501.3 1114.8 -520.7Q1151.3 -540 1191 -540Q1208.7 -540 1224.2 -537.3Q1239.7 -534.7 1250.7 -530L1213 -374.7Q1201.7 -380.3 1184.5 -384.5Q1167.3 -388.7 1149.3 -388.7Q1125.7 -388.7 1105.2 -380.2Q1084.7 -371.7 1069.5 -356.2Q1054.3 -340.7 1045.7 -319.8Q1037 -299 1037 -273.3V0H894.3Z M1543 0 1321 -529H1476L1617.3 -136L1585 -129.7L1732.7 -529H1885.3L1651.7 0H1543Z M2201.7 10Q2116 10 2051.5 -24.8Q1987 -59.7 1951.5 -120.7Q1916 -181.7 1916 -260.3Q1916 -322.3 1936 -373.7Q1956 -425 1992.2 -462.2Q2028.3 -499.3 2077.8 -519.8Q2127.3 -540.3 2186 -540.3Q2240.3 -540.3 2285.7 -520.5Q2331 -500.7 2364.5 -465.3Q2398 -430 2415.8 -381.8Q2433.7 -333.7 2432.7 -276.7L2431.7 -232.7H2007.3L1983.7 -320.7H2314.7L2298.3 -303V-324.3Q2296 -352 2280.7 -373Q2265.3 -394 2241.3 -406.3Q2217.3 -418.7 2188 -418.7Q2143.3 -418.7 2112.7 -401.5Q2082 -384.3 2066.3 -351.8Q2050.7 -319.3 2050.7 -271.3Q2050.7 -224.3 2070.7 -188.8Q2090.7 -153.3 2128.3 -134Q2166 -114.7 2217 -114.7Q2252 -114.7 2281.2 -125.7Q2310.3 -136.7 2344 -164L2411.3 -69Q2382.7 -43.7 2347.8 -26Q2313 -8.3 2275.8 0.8Q2238.7 10 2201.7 10Z M2532.3 0V-529H2668.7L2672.7 -421L2644.7 -409Q2655.3 -444.7 2684 -474.2Q2712.7 -503.7 2752.7 -521.8Q2792.7 -540 2836 -540Q2896 -540 2936.7 -515.8Q2977.3 -491.7 2997.7 -443.3Q3018 -395 3018 -323.3V0H2876.3V-313Q2876.3 -349.3 2866.3 -373.2Q2856.3 -397 2836 -408.2Q2815.7 -419.3 2785.3 -418Q2761.3 -418 2741 -410.5Q2720.7 -403 2705.5 -389Q2690.3 -375 2682.2 -356.8Q2674 -338.7 2674 -316.7V0H2603Q2581.3 0 2563.3 0Q2545.3 0 2532.3 0Z"/><g fill="#57516F" transform="translate(977.6 1250.2) scale(0.25)"><path transform="translate(0.0 0)" d="M284.9 0V-349L291.9 -300L8.9 -700H143.1L359.1 -390.1L329.9 -393.1L524.8 -700H653.1L382.1 -289L397.1 -357.1V0H284.9Z M997.1 0V-340.9Q997.1 -384.7 966.2 -411.7Q935.3 -438.7 887.8 -438.7Q844.1 -438.7 809 -420.9Q773.8 -403.1 744.9 -366.4L675.9 -435.1Q723 -486 778 -511.2Q833 -536.4 896.7 -536.4Q957.1 -536.4 1001.5 -516.4Q1045.8 -496.4 1070 -457.7Q1094.2 -419.1 1094.2 -363.5V0H997.1ZM841.3 10Q790.4 10 750.4 -10Q710.3 -30 686.8 -65.5Q663.3 -101 663.3 -149Q663.3 -190.9 678.3 -222.9Q693.3 -254.8 722.8 -275.8Q752.3 -296.7 796.8 -307.7Q841.3 -318.7 899.4 -318.7H1046.4L1037.4 -235.4H887.5Q858.1 -235.4 835.1 -230Q812.1 -224.7 796 -213.4Q779.9 -202.2 772 -187.1Q764.2 -171.9 764.2 -151.4Q764.2 -129.9 775 -113.7Q785.8 -97.6 804.4 -88.8Q823.1 -80 847.6 -80Q882.9 -80 914.8 -92.2Q946.7 -104.5 971.8 -126.1Q996.8 -147.7 1010.6 -174.3L1034.9 -106.9Q1013.9 -72 983 -46Q952.1 -20 916.2 -5Q880.3 10 841.3 10Z M1236 0V-86.5L1507.7 -448.2V-433.6H1236V-525.4H1622.8V-440.5L1355.9 -84.1L1351.9 -91.8H1628.9V0H1236Z M1777.6 0V-525.4H1884.5V0H1777.6Z M2061.8 0V-740H2168.7V0H2061.8Z M2346.6 0V-525.4H2453.5V0H2346.6Z M2627 0V-525.4H2734.3L2734.6 -414.5L2715.4 -403.1Q2723.6 -429.1 2741.2 -452.9Q2758.8 -476.6 2784.2 -494.8Q2809.5 -512.9 2838.8 -523.7Q2868.1 -534.5 2898.7 -534.5Q2943.4 -534.5 2977.2 -519.7Q3011.1 -504.9 3033.2 -475.1Q3055.3 -445.3 3065.5 -400.3L3049 -404.3L3056 -421.1Q3067.2 -444.1 3086.8 -464.6Q3106.3 -485 3131.3 -500.9Q3156.3 -516.7 3184.2 -525.6Q3212.1 -534.5 3239 -534.5Q3298.3 -534.5 3337 -510.4Q3375.7 -486.3 3395.3 -437.4Q3414.9 -388.4 3414.9 -315.5V0H3307.1V-309.1Q3307.1 -374.8 3282 -405.8Q3256.9 -436.7 3203.9 -436.7Q3176.4 -436.7 3152.4 -427.4Q3128.3 -418.1 3110.7 -401.4Q3093.1 -384.7 3083.3 -362.7Q3073.5 -340.6 3073.5 -314.1V0H2965.7V-311.1Q2965.7 -371.9 2939.6 -404.3Q2913.5 -436.7 2864.3 -436.7Q2836.9 -436.7 2813.3 -427.4Q2789.7 -418.1 2772.1 -401.9Q2754.5 -385.7 2744.7 -363.6Q2734.9 -341.5 2734.9 -315.9V0H2627Z M3946.9 -253Q3913.4 -253 3895.1 -272.8Q3876.8 -292.5 3876.8 -329Q3876.8 -362.5 3896.1 -383.8Q3915.4 -405.1 3946.9 -405.1Q3980.5 -405.1 3998.8 -385.3Q4017.1 -365.5 4017.1 -329Q4017.1 -295.5 3997.8 -274.3Q3978.4 -253 3946.9 -253Z M4727.4 10Q4640.2 10 4574.3 -24.2Q4508.4 -58.3 4461.1 -126.3L4537.1 -213.4Q4586.1 -143.6 4631.5 -116.9Q4676.8 -90.1 4738.2 -90.1Q4775.5 -90.1 4805.8 -101.8Q4836.2 -113.5 4853.8 -134Q4871.5 -154.5 4871.5 -180.9Q4871.5 -198.7 4865.4 -214.5Q4859.3 -230.2 4846.7 -242.9Q4834.2 -255.7 4814.9 -266.4Q4795.5 -277.2 4769.9 -285.5Q4744.3 -293.7 4711.1 -299.6Q4656.9 -310.7 4616.7 -328.8Q4576.5 -346.9 4549.4 -373.9Q4522.3 -400.9 4509.3 -435.5Q4496.2 -470.1 4496.2 -513.2Q4496.2 -570.7 4528.5 -614.9Q4560.8 -659.2 4615.7 -684.8Q4670.5 -710.4 4738.7 -710.4Q4821.1 -710.4 4881.7 -678.8Q4942.3 -647.3 4977.5 -587.5L4899.5 -510.6Q4869.4 -559 4828 -584.6Q4786.7 -610.2 4736.2 -610.2Q4697.9 -610.2 4669.3 -598.5Q4640.8 -586.9 4624.6 -565.9Q4608.5 -544.9 4608.5 -516.6Q4608.5 -495.9 4616.6 -478.8Q4624.7 -461.6 4641.2 -448.4Q4657.7 -435.2 4685.3 -425Q4712.9 -414.7 4750.9 -407Q4805.9 -395.1 4849 -376.6Q4892.1 -358.1 4922.3 -333Q4952.4 -307.9 4968 -276.6Q4983.7 -245.3 4983.7 -208.7Q4983.7 -141.3 4952.4 -92.2Q4921.1 -43.1 4863.8 -16.5Q4806.5 10 4727.4 10Z M5453.1 0V-340.9Q5453.1 -384.7 5422.2 -411.7Q5391.3 -438.7 5343.8 -438.7Q5300.1 -438.7 5265 -420.9Q5229.8 -403.1 5200.9 -366.4L5131.9 -435.1Q5179 -486 5234 -511.2Q5289 -536.4 5352.7 -536.4Q5413.1 -536.4 5457.5 -516.4Q5501.8 -496.4 5526 -457.7Q5550.2 -419.1 5550.2 -363.5V0H5453.1ZM5297.3 10Q5246.4 10 5206.4 -10Q5166.3 -30 5142.8 -65.5Q5119.3 -101 5119.3 -149Q5119.3 -190.9 5134.3 -222.9Q5149.3 -254.8 5178.8 -275.8Q5208.3 -296.7 5252.8 -307.7Q5297.3 -318.7 5355.4 -318.7H5502.4L5493.4 -235.4H5343.5Q5314.1 -235.4 5291.1 -230Q5268.1 -224.7 5252 -213.4Q5235.9 -202.2 5228 -187.1Q5220.2 -171.9 5220.2 -151.4Q5220.2 -129.9 5231 -113.7Q5241.8 -97.6 5260.4 -88.8Q5279.1 -80 5303.6 -80Q5338.9 -80 5370.8 -92.2Q5402.7 -104.5 5427.8 -126.1Q5452.8 -147.7 5466.6 -174.3L5490.9 -106.9Q5469.9 -72 5439 -46Q5408.1 -20 5372.2 -5Q5336.3 10 5297.3 10Z M6023.1 0V-340.9Q6023.1 -384.7 5992.2 -411.7Q5961.3 -438.7 5913.8 -438.7Q5870.1 -438.7 5835 -420.9Q5799.8 -403.1 5770.9 -366.4L5701.9 -435.1Q5749 -486 5804 -511.2Q5859 -536.4 5922.7 -536.4Q5983.1 -536.4 6027.5 -516.4Q6071.8 -496.4 6096 -457.7Q6120.2 -419.1 6120.2 -363.5V0H6023.1ZM5867.3 10Q5816.4 10 5776.4 -10Q5736.3 -30 5712.8 -65.5Q5689.3 -101 5689.3 -149Q5689.3 -190.9 5704.3 -222.9Q5719.3 -254.8 5748.8 -275.8Q5778.3 -296.7 5822.8 -307.7Q5867.3 -318.7 5925.4 -318.7H6072.4L6063.4 -235.4H5913.5Q5884.1 -235.4 5861.1 -230Q5838.1 -224.7 5822 -213.4Q5805.9 -202.2 5798 -187.1Q5790.2 -171.9 5790.2 -151.4Q5790.2 -129.9 5801 -113.7Q5811.8 -97.6 5830.4 -88.8Q5849.1 -80 5873.6 -80Q5908.9 -80 5940.8 -92.2Q5972.7 -104.5 5997.8 -126.1Q6022.8 -147.7 6036.6 -174.3L6060.9 -106.9Q6039.9 -72 6009 -46Q5978.1 -20 5942.2 -5Q5906.3 10 5867.3 10Z M6526.4 10Q6439.2 10 6373.3 -24.2Q6307.4 -58.3 6260.1 -126.3L6336.1 -213.4Q6385.1 -143.6 6430.5 -116.9Q6475.8 -90.1 6537.2 -90.1Q6574.5 -90.1 6604.8 -101.8Q6635.2 -113.5 6652.8 -134Q6670.5 -154.5 6670.5 -180.9Q6670.5 -198.7 6664.4 -214.5Q6658.3 -230.2 6645.7 -242.9Q6633.2 -255.7 6613.9 -266.4Q6594.5 -277.2 6568.9 -285.5Q6543.3 -293.7 6510.1 -299.6Q6455.9 -310.7 6415.7 -328.8Q6375.5 -346.9 6348.4 -373.9Q6321.3 -400.9 6308.3 -435.5Q6295.2 -470.1 6295.2 -513.2Q6295.2 -570.7 6327.5 -614.9Q6359.8 -659.2 6414.7 -684.8Q6469.5 -710.4 6537.7 -710.4Q6620.1 -710.4 6680.7 -678.8Q6741.3 -647.3 6776.5 -587.5L6698.5 -510.6Q6668.4 -559 6627 -584.6Q6585.7 -610.2 6535.2 -610.2Q6496.9 -610.2 6468.3 -598.5Q6439.8 -586.9 6423.6 -565.9Q6407.5 -544.9 6407.5 -516.6Q6407.5 -495.9 6415.6 -478.8Q6423.7 -461.6 6440.2 -448.4Q6456.7 -435.2 6484.3 -425Q6511.9 -414.7 6549.9 -407Q6604.9 -395.1 6648 -376.6Q6691.1 -358.1 6721.3 -333Q6751.4 -307.9 6767 -276.6Q6782.7 -245.3 6782.7 -208.7Q6782.7 -141.3 6751.4 -92.2Q6720.1 -43.1 6662.8 -16.5Q6605.5 10 6526.4 10Z M7302.9 -253Q7269.4 -253 7251.1 -272.8Q7232.8 -292.5 7232.8 -329Q7232.8 -362.5 7252.1 -383.8Q7271.4 -405.1 7302.9 -405.1Q7336.5 -405.1 7354.8 -385.3Q7373.1 -365.5 7373.1 -329Q7373.1 -295.5 7353.8 -274.3Q7334.4 -253 7302.9 -253Z M8053.9 0V-349L8060.9 -300L7777.9 -700H7912.1L8128.1 -390.1L8098.9 -393.1L8293.8 -700H8422.1L8151.1 -289L8166.1 -357.1V0H8053.9Z M8766.1 0V-340.9Q8766.1 -384.7 8735.2 -411.7Q8704.3 -438.7 8656.8 -438.7Q8613.1 -438.7 8578 -420.9Q8542.8 -403.1 8513.9 -366.4L8444.9 -435.1Q8492 -486 8547 -511.2Q8602 -536.4 8665.7 -536.4Q8726.1 -536.4 8770.5 -516.4Q8814.8 -496.4 8839 -457.7Q8863.2 -419.1 8863.2 -363.5V0H8766.1ZM8610.3 10Q8559.4 10 8519.4 -10Q8479.3 -30 8455.8 -65.5Q8432.3 -101 8432.3 -149Q8432.3 -190.9 8447.3 -222.9Q8462.3 -254.8 8491.8 -275.8Q8521.3 -296.7 8565.8 -307.7Q8610.3 -318.7 8668.4 -318.7H8815.4L8806.4 -235.4H8656.5Q8627.1 -235.4 8604.1 -230Q8581.1 -224.7 8565 -213.4Q8548.9 -202.2 8541 -187.1Q8533.2 -171.9 8533.2 -151.4Q8533.2 -129.9 8544 -113.7Q8554.8 -97.6 8573.4 -88.8Q8592.1 -80 8616.6 -80Q8651.9 -80 8683.8 -92.2Q8715.7 -104.5 8740.8 -126.1Q8765.8 -147.7 8779.6 -174.3L8803.9 -106.9Q8782.9 -72 8752 -46Q8721.1 -20 8685.2 -5Q8649.3 10 8610.3 10Z M9026.9 220V-525.4H9134.2L9134.7 -405.6L9117.7 -414.6Q9123.7 -444.7 9151.6 -472.2Q9179.6 -499.6 9220.1 -517Q9260.7 -534.5 9303.9 -534.5Q9374.7 -534.5 9429.5 -499.5Q9484.4 -464.5 9516.3 -403.4Q9548.2 -342.3 9548.2 -263.1Q9548.2 -185.1 9516.8 -123.5Q9485.3 -62 9430.4 -26.5Q9375.5 9 9306.6 9Q9260.6 9 9217.7 -9.4Q9174.9 -27.9 9145 -56.8Q9115.1 -85.7 9108.1 -116.9L9134.8 -130.9V220H9026.9ZM9288.1 -88.7Q9333.5 -88.7 9368.8 -111.3Q9404.2 -133.9 9424.8 -173.4Q9445.3 -212.8 9445.3 -263.1Q9445.3 -313.5 9425.2 -352.5Q9405.1 -391.5 9369.8 -414.1Q9334.4 -436.7 9288.1 -436.7Q9241.8 -436.7 9206.4 -414.6Q9171 -392.4 9150.4 -353Q9129.8 -313.6 9129.8 -263.1Q9129.8 -212.8 9150.4 -173.4Q9171 -133.9 9206.4 -111.3Q9241.8 -88.7 9288.1 -88.7Z M10003.1 0V-340.9Q10003.1 -384.7 9972.2 -411.7Q9941.3 -438.7 9893.8 -438.7Q9850.1 -438.7 9815 -420.9Q9779.8 -403.1 9750.9 -366.4L9681.9 -435.1Q9729 -486 9784 -511.2Q9839 -536.4 9902.7 -536.4Q9963.1 -536.4 10007.5 -516.4Q10051.8 -496.4 10076 -457.7Q10100.2 -419.1 10100.2 -363.5V0H10003.1ZM9847.3 10Q9796.4 10 9756.4 -10Q9716.3 -30 9692.8 -65.5Q9669.3 -101 9669.3 -149Q9669.3 -190.9 9684.3 -222.9Q9699.3 -254.8 9728.8 -275.8Q9758.3 -296.7 9802.8 -307.7Q9847.3 -318.7 9905.4 -318.7H10052.4L10043.4 -235.4H9893.5Q9864.1 -235.4 9841.1 -230Q9818.1 -224.7 9802 -213.4Q9785.9 -202.2 9778 -187.1Q9770.2 -171.9 9770.2 -151.4Q9770.2 -129.9 9781 -113.7Q9791.8 -97.6 9810.4 -88.8Q9829.1 -80 9853.6 -80Q9888.9 -80 9920.8 -92.2Q9952.7 -104.5 9977.8 -126.1Q10002.8 -147.7 10016.6 -174.3L10040.9 -106.9Q10019.9 -72 9989 -46Q9958.1 -20 9922.2 -5Q9886.3 10 9847.3 10Z M10338.6 230 10445.6 -17.6 10446.7 64.5 10185 -525.4H10309.1L10469.7 -147.3Q10474.9 -136.7 10482 -115.9Q10489.1 -95.2 10494 -75.1L10468.2 -68.7Q10476.1 -89.3 10483.6 -110.4Q10491.1 -131.5 10498.2 -152.9L10632.6 -525.4H10758.7L10542.1 0L10452.9 230H10338.6Z M11175 0V-81.3L11572.3 -612.9L11590.2 -592.5H11201V-700H11709.4V-619.7L11314.1 -87.1L11295.2 -107.1H11720.4V0H11175Z M12122.5 10Q12041 10 11978.3 -24.5Q11915.6 -59.1 11880.1 -119.2Q11844.6 -179.3 11844.6 -257.3Q11844.6 -319.3 11864.6 -370.4Q11884.6 -421.4 11920.2 -458.9Q11955.7 -496.3 12005.2 -516.8Q12054.7 -537.3 12112.8 -537.3Q12164.1 -537.3 12208.3 -517.8Q12252.4 -498.3 12285 -464.1Q12317.6 -430 12335.1 -383.3Q12352.7 -336.7 12351.7 -281.5L12350.7 -237.5H11922.1L11899.1 -320.1H12258.9L12243.7 -303V-326.7Q12240.8 -359.2 12222.2 -384.7Q12203.5 -410.2 12175 -424.9Q12146.5 -439.7 12113 -439.7Q12059.9 -439.7 12023.6 -419.5Q11987.2 -399.3 11968.5 -360.5Q11949.9 -321.7 11949.9 -264.7Q11949.9 -210.5 11972.6 -170.5Q11995.3 -130.5 12036.8 -108.8Q12078.4 -87.1 12133 -87.1Q12171.6 -87.1 12204.7 -99.9Q12237.7 -112.7 12276.2 -146L12329.7 -70.8Q12305.3 -46.7 12270.7 -28.7Q12236.2 -10.7 12197.8 -0.4Q12159.5 10 12122.5 10Z M12594.9 -163.5 12586.5 -276.1 12837.2 -525.4H12981L12594.9 -163.5ZM12496.9 0V-740H12603.8V0H12496.9ZM12851.3 0 12654.1 -231.6 12729.9 -300 12987.2 0H12851.3Z M13390.1 0V-340.9Q13390.1 -384.7 13359.2 -411.7Q13328.3 -438.7 13280.8 -438.7Q13237.1 -438.7 13202 -420.9Q13166.8 -403.1 13137.9 -366.4L13068.9 -435.1Q13116 -486 13171 -511.2Q13226 -536.4 13289.7 -536.4Q13350.1 -536.4 13394.5 -516.4Q13438.8 -496.4 13463 -457.7Q13487.2 -419.1 13487.2 -363.5V0H13390.1ZM13234.3 10Q13183.4 10 13143.4 -10Q13103.3 -30 13079.8 -65.5Q13056.3 -101 13056.3 -149Q13056.3 -190.9 13071.3 -222.9Q13086.3 -254.8 13115.8 -275.8Q13145.3 -296.7 13189.8 -307.7Q13234.3 -318.7 13292.4 -318.7H13439.4L13430.4 -235.4H13280.5Q13251.1 -235.4 13228.1 -230Q13205.1 -224.7 13189 -213.4Q13172.9 -202.2 13165 -187.1Q13157.2 -171.9 13157.2 -151.4Q13157.2 -129.9 13168 -113.7Q13178.8 -97.6 13197.4 -88.8Q13216.1 -80 13240.6 -80Q13275.9 -80 13307.8 -92.2Q13339.7 -104.5 13364.8 -126.1Q13389.8 -147.7 13403.6 -174.3L13427.9 -106.9Q13406.9 -72 13376 -46Q13345.1 -20 13309.2 -5Q13273.3 10 13234.3 10ZM13156.1 -606.6 13116.8 -640.7 13233.7 -754.8H13320.4L13437.3 -640.7L13398 -606.6L13262.1 -680.4H13292.1L13156.1 -606.6Z"/></g></svg>
